<?xml version="1.0" encoding="UTF-8" standalone="no"?>
<!-- Created with Inkscape (http://www.inkscape.org/) -->

<svg
   xmlns:dc="http://purl.org/dc/elements/1.1/"
   xmlns:cc="http://creativecommons.org/ns#"
   xmlns:rdf="http://www.w3.org/1999/02/22-rdf-syntax-ns#"
   xmlns:svg="http://www.w3.org/2000/svg"
   xmlns="http://www.w3.org/2000/svg"
   xmlns:sodipodi="http://sodipodi.sourceforge.net/DTD/sodipodi-0.dtd"
   xmlns:inkscape="http://www.inkscape.org/namespaces/inkscape"
   width="213.712995"
   height="248.227005"
   viewBox="0 0 113.08979 131.35346"
   version="1.1"
   id="svg8"
   inkscape:version="0.92.3 (2405546, 2018-03-11)"
   sodipodi:docname="logo_caburé.svg">
  <defs
     id="defs2" />
  <sodipodi:namedview
     id="base"
     pagecolor="#ffffff"
     bordercolor="#666666"
     borderopacity="1.0"
     inkscape:pageopacity="0.0"
     inkscape:pageshadow="2"
     inkscape:zoom="0.98994949"
     inkscape:cx="166.03743"
     inkscape:cy="291.06628"
     inkscape:document-units="mm"
     inkscape:current-layer="layer1"
     showgrid="false"
     units="px"
     inkscape:window-width="1918"
     inkscape:window-height="1012"
     inkscape:window-x="0"
     inkscape:window-y="0"
     inkscape:window-maximized="1" />
  <metadata
     id="metadata5">
    <rdf:RDF>
      <cc:Work
         rdf:about="">
        <dc:format>image/svg+xml</dc:format>
        <dc:type
           rdf:resource="http://purl.org/dc/dcmitype/StillImage" />
        <dc:title></dc:title>
      </cc:Work>
    </rdf:RDF>
  </metadata>
  <g
     inkscape:label="Camada 1"
     inkscape:groupmode="layer"
     id="layer1"
     transform="translate(0,-165.64651)">
    <g
       id="g951"
       transform="matrix(0.97558319,0,0,0.97558319,-41.296683,115.82347)">
      <path
         inkscape:connector-curvature="0"
         id="path930"
         d="m 102.60656,173.04675 c -10.604302,-0.75753 -18.937637,-2.7246 -26.245795,-6.19528 -8.612262,-4.09 -14.096345,-9.05642 -20.321515,-18.40328 -6.66408,-10.00589 -10.53913,-20.58449 -11.9194,-32.53911 -0.65724,-5.69237 -0.4238,-15.34317 0.50191,-20.749806 2.07627,-12.12647 6.6082,-23.65059 12.1346,-30.85671 4.32122,-5.634629 11.451913,-9.707169 19.656454,-11.226349 3.341603,-0.61875 9.721711,-0.41886 12.6899,0.39756 6.827387,1.87794 12.146066,5.43486 16.009946,10.706799 4.41508,6.02403 6.89105,14.8419 6.87836,24.49641 -0.007,4.99889 -0.28668,8.12303 -1.21322,13.531486 -0.38996,2.27633 -0.64029,4.31789 -0.55629,4.53679 0.0852,0.22209 1.30126,0.76741 2.75118,1.23374 23.58362,7.58508 38.83449,28.6445 43.83888,60.53568 0.1548,0.98644 -0.41991,1.41246 -2.62522,1.94602 -6.54254,1.58294 -15.05747,2.22933 -20.77075,1.57676 -12.26903,-1.40137 -22.72406,-6.37851 -33.16315,-15.78738 -7.337697,-6.61356 -13.666355,-14.16672 -21.459182,-25.61121 -2.535532,-3.72367 -3.596741,-5.07475 -4.034896,-5.13707 -1.012828,-0.14403 -0.731036,0.78974 1.810991,6.00104 4.313581,8.8431 7.482973,14.49056 11.379728,20.27726 7.25688,10.7765 13.785389,15.80313 25.835699,19.89218 1.63688,0.55545 2.93673,1.12897 2.88855,1.27449 -0.11217,0.33886 -9.76258,0.40745 -14.06678,0.1 z"
         style="fill:#fed800;fill-opacity:1;stroke-width:0.26458332" />
      <path
         inkscape:connector-curvature="0"
         id="path928"
         d="m 81.018601,101.90425 c 1.512753,-2.334576 3.17365,-3.194856 7.391095,-3.828306 6.84327,-1.02784 10.978179,-2.94158 14.960854,-6.92425 2.1773,-2.1773 3.7165,-5.15729 4.16805,-8.06964 0.92315,-5.95392 -2.80139,-12.5526 -8.676285,-15.37157 -2.02601,-0.97214 -2.554722,-1.11136 -4.565233,-1.20209 -4.364294,-0.19694 -9.573506,1.49939 -12.395286,4.03641 -0.733369,0.65936 -1.536536,1.19884 -1.784815,1.19884 -0.24828,0 -1.051447,-0.53948 -1.784816,-1.19884 -1.532369,-1.37773 -4.32549,-2.78042 -6.814143,-3.42202 -2.347639,-0.60525 -6.019959,-0.81673 -7.539252,-0.43417 -5.62879,1.41735 -10.44532,6.76812 -11.27853,12.52951 -0.89989,6.22243 2.10535,11.54552 8.78667,15.56359 2.37649,1.42919 5.607043,2.5081 9.382613,3.13352 4.649902,0.77024 5.799715,1.18025 7.120258,2.538986 0.618384,0.63627 1.275125,1.5209 1.459428,1.96585 0.184304,0.44494 0.419661,0.80899 0.523021,0.80899 0.103357,0 0.574225,-0.59617 1.046371,-1.32481 z"
         style="fill:#ffffff;fill-opacity:1;stroke-width:0.26458332" />
      <path
         inkscape:connector-curvature="0"
         id="path938"
         d="m 69.759577,183.20783 c 0.44294,-2.08406 1.30534,-2.31175 8.76317,-2.31363 l 5.86118,-0.002 2.53966,-3.55645 c 1.39681,-1.95605 2.64232,-3.61991 2.76781,-3.69746 0.22495,-0.13903 4.01725,0.56384 4.2391,0.78568 0.0628,0.0628 -0.62157,1.20129 -1.52084,2.52994 -1.29883,1.919 -1.57191,2.49178 -1.32806,2.78561 0.24768,0.29843 1.30914,0.35604 5.49555,0.29826 l 5.188583,-0.0715 1.28579,-2.3151 1.28579,-2.31511 1.62463,0.004 c 2.49883,0.006 2.60223,0.17616 1.42619,2.34381 -1.47094,2.71117 -1.42003,2.85959 1.05833,3.08589 1.12779,0.10298 2.25765,0.29526 2.51081,0.42729 0.46745,0.24381 1.04313,1.19548 1.37611,2.2749 l 0.18364,0.59531 h -21.470103 -21.4701 l 0.18276,-0.85989 z"
         style="fill:#FE5900;fill-opacity:1;stroke-width:0.26458332" />
      <path
         inkscape:connector-curvature="0"
         id="path936"
         d="m 65.776865,90.906274 c -5.474785,-1.68574 -8.137045,-7.94072 -5.585485,-13.12313 1.00375,-2.03871 2.43826,-3.43806 4.529745,-4.41874 1.26138,-0.59144 1.84822,-0.69722 3.86821,-0.69722 2.00762,0 2.60968,0.10717 3.83708,0.68297 4.03523,1.89304 6.25749,6.43834 5.21439,10.66527 -1.31053,5.31062 -6.74493,8.46704 -11.86394,6.89085 z"
         style="fill:#8e8c8d;stroke-width:0.26458332" />
      <path
         inkscape:connector-curvature="0"
         id="path902"
         d="m 88.905645,90.952174 c -2.7342,-0.8929 -4.65573,-2.58736 -5.86959,-5.17599 -0.58154,-1.24017 -0.68806,-1.83646 -0.68821,-3.85249 -1.6e-4,-2.15764 0.0821,-2.55252 0.86228,-4.13872 1.00369,-2.04063 2.43674,-3.43912 4.52975,-4.42051 1.26138,-0.59145 1.84821,-0.69723 3.86821,-0.69723 2.88251,0 4.57877,0.6743 6.56667,2.61039 4.732135,4.6088 3.203995,12.5801 -2.93532,15.31169 -1.56702,0.69722 -4.75131,0.87965 -6.33379,0.36286 z"
         style="fill:#8e8c8d;stroke-width:0.26458332" />
      <path
         inkscape:connector-curvature="0"
         id="path942"
         d="m 65.522275,87.418134 c -4.756295,-2.41216 -4.756295,-9.09722 0,-11.50938 3.5098,-1.77999 7.79893,-0.18803 9.17067,3.4038 0.52495,1.37458 0.40688,4.05059 -0.23267,5.27326 -1.69551,3.24139 -5.65645,4.49656 -8.938,2.83232 z"
         style="fill:#121212;stroke-width:0.26458332" />
      <path
         inkscape:connector-curvature="0"
         id="path898"
         d="m 89.098785,87.728394 c -3.59254,-1.55844 -5.08321,-5.62614 -3.32982,-9.0863 1.20185,-2.37174 3.4833,-3.59631 6.35899,-3.4132 3.36313,0.21415 5.71635,2.61037 5.90884,6.01678 0.1599,2.82986 -1.06446,5.02846 -3.46696,6.22567 -1.58152,0.78811 -3.98637,0.90109 -5.47105,0.25705 z"
         style="fill:#121212;stroke-width:0.26458332" />
    </g>
  </g>
</svg>
